<svg xmlns="http://www.w3.org/2000/svg" width="512" height="512"><path style="fill:#ffffff; stroke:none;" d="M0 0L0 234L1 234C1.01559 210.462 8.25762 185.736 16.7971 164C42.9137 97.5244 96.1857 43.0738 163 17.1891C185.177 8.59756 209.996 1.01581 234 1L212 0L165 0L0 0z"></path><path style="fill:#010101; stroke:none;" d="M234 0.424377C186.39 6.67859 143.304 20.4755 104 49.0108C77.6311 68.1551 54.4432 93.0817 37.6011 121C-33.3807 238.662 -0.392578 399.897 119 473.189C141.697 487.122 166.102 498.15 192 504.625C222.645 512.286 255.616 514.518 287 510.715C324.5 506.169 359.779 493.367 392 473.797C416.794 458.738 438.704 438.587 456.8 416C545.975 304.696 523.596 137.543 411 51.2354C385.739 31.8721 356.533 17.7621 326 9C297.327 0.771515 263.758 -3.48468 234 0.424377z"></path><path style="fill:#ffffff; stroke:none;" d="M278 0L278 1C302.004 1.01581 326.823 8.59756 349 17.1891C415.814 43.0738 469.086 97.5244 495.203 164C503.742 185.736 510.984 210.462 511 234L512 234L512 0L278 0M208 129.529C188.084 134.133 191.099 156.539 202.039 168C223.171 190.138 245.359 211.359 267 233C271.613 237.613 287.944 249.241 287.944 256C287.944 259.141 283.989 262.003 282 264L265 281C243.092 302.908 217.933 323.902 198.468 348C186.739 362.521 195.514 383.82 215 382.959C228.232 382.375 238.403 367.597 247 359L318 288C326.801 279.199 342.434 268.235 340.684 254C339.374 243.337 330.105 236.105 323 229L277 183L237 143C228.784 134.787 220.586 126.62 208 129.529M0 278L0 512L234 512L234 511C210.462 510.984 185.736 503.742 164 495.203C104.96 472.008 52.214 426.146 25.3094 368C16.3342 348.603 9.53224 328.862 4.88426 308C2.80398 298.663 3.62727 286.641 0 278M511 278C510.984 302.004 503.402 326.823 494.811 349C468.926 415.814 414.476 469.086 348 495.203C326.264 503.742 301.538 510.984 278 511L278 512L512 512L512 347L512 300L511 278z"></path></svg>