<svg xmlns="http://www.w3.org/2000/svg" xmlns:xlink="http://www.w3.org/1999/xlink" id="svg" width="400" height="400" viewBox="0, 0, 400,400"><g id="svgg"><path id="path0" d="M108.789 88.520 C 101.698 90.225,94.343 96.139,91.108 102.734 C 88.059 108.952,88.293 100.892,88.293 199.609 C 88.293 277.372,88.365 288.393,88.886 290.625 C 91.087 300.041,99.568 308.523,108.984 310.723 C 112.834 311.623,287.166 311.623,291.016 310.723 C 300.432 308.523,308.913 300.041,311.114 290.625 C 311.635 288.393,311.707 277.372,311.707 199.609 C 311.707 121.847,311.635 110.825,311.114 108.594 C 308.913 99.177,300.432 90.696,291.016 88.496 C 287.279 87.622,112.423 87.645,108.789 88.520 M162.529 96.321 C 197.569 102.203,217.183 141.202,201.144 173.103 C 181.578 212.016,125.435 212.167,105.678 173.358 C 85.758 134.229,119.111 89.033,162.529 96.321 M144.336 103.513 C 107.846 110.911,94.369 156.211,120.946 182.129 C 150.315 210.769,199.609 190.024,199.609 149.023 C 199.609 119.862,172.756 97.751,144.336 103.513 M155.889 109.992 C 157.400 111.601,157.304 116.852,155.740 118.198 C 152.717 120.798,150.000 118.886,150.000 114.157 C 150.000 109.174,153.076 106.999,155.889 109.992 M130.888 121.739 C 134.352 125.043,133.761 128.906,129.792 128.906 C 125.763 128.906,122.429 123.214,124.970 120.673 C 126.790 118.853,128.112 119.091,130.888 121.739 M181.681 120.545 C 183.552 122.238,182.880 125.050,180.018 127.500 C 177.953 129.268,175.881 129.432,174.396 127.947 C 171.002 124.554,178.120 117.321,181.681 120.545 M155.055 125.965 C 156.657 126.793,157.031 128.359,157.031 134.228 L 157.031 139.433 158.126 139.999 C 159.480 140.699,162.318 143.734,162.677 144.865 C 162.916 145.616,163.225 145.703,165.651 145.703 C 168.628 145.703,169.663 146.293,170.160 148.273 C 170.823 150.915,168.547 152.727,164.561 152.732 C 163.159 152.734,162.826 152.896,162.348 153.809 C 158.418 161.315,147.201 160.768,143.910 152.909 C 141.974 148.285,144.502 141.636,148.887 139.819 L 150.000 139.358 150.000 133.426 C 150.000 127.273,150.125 126.735,151.758 125.842 C 152.831 125.255,153.748 125.289,155.055 125.965 M295.007 132.439 C 300.295 133.908,300.552 135.302,298.994 154.083 C 297.656 170.218,297.298 171.200,292.342 172.309 L 290.234 172.781 290.234 220.761 L 290.234 268.741 291.801 268.991 C 297.582 269.916,299.761 273.342,299.930 281.772 C 300.097 290.109,298.739 293.140,293.934 295.147 C 291.605 296.120,107.803 295.949,105.664 294.972 C 101.147 292.909,99.892 289.913,100.067 281.608 C 100.241 273.355,102.463 269.909,108.199 268.991 L 109.766 268.741 109.766 258.980 C 109.766 249.797,109.723 249.219,109.054 249.219 C 102.672 249.219,97.824 240.639,100.824 234.652 C 102.904 230.502,104.139 229.894,115.625 227.361 C 175.403 214.176,222.333 190.729,264.059 153.201 L 266.204 151.272 263.530 148.436 C 258.953 143.585,258.502 138.998,262.309 136.004 C 264.060 134.626,272.084 133.599,292.969 132.078 C 293.291 132.055,294.208 132.217,295.007 132.439 M278.711 140.454 C 273.125 140.947,268.220 141.364,267.811 141.379 C 267.270 141.399,268.153 142.523,271.033 145.483 C 277.072 151.690,277.245 151.192,265.430 161.523 C 223.404 198.268,176.186 221.461,117.383 234.240 C 107.986 236.282,107.031 236.727,107.031 239.063 C 107.031 243.166,108.399 243.061,132.617 237.097 C 185.598 224.051,232.498 199.311,272.777 163.160 C 281.349 155.466,280.984 155.511,287.000 161.431 C 289.892 164.277,291.017 165.171,291.021 164.625 C 291.024 164.208,291.460 158.945,291.990 152.930 C 292.521 146.914,292.958 141.421,292.962 140.723 L 292.969 139.453 290.918 139.505 C 289.790 139.533,284.297 139.960,278.711 140.454 M122.628 146.732 C 124.986 149.730,122.952 152.539,118.425 152.539 C 113.700 152.539,111.462 149.448,114.131 146.607 C 115.490 145.160,121.461 145.248,122.628 146.732 M192.455 146.552 C 193.767 147.785,193.715 150.311,192.351 151.592 C 188.419 155.286,180.378 150.446,184.162 146.662 C 185.527 145.296,191.041 145.224,192.455 146.552 M151.240 146.998 C 149.760 148.573,150.182 150.958,152.082 151.756 C 154.602 152.816,157.059 150.536,156.164 147.968 C 155.455 145.934,152.742 145.399,151.240 146.998 M275.391 170.393 C 272.490 172.984,267.173 177.475,263.574 180.373 L 257.031 185.642 257.031 227.196 L 257.031 268.750 270.117 268.750 L 283.203 268.750 283.203 218.237 L 283.203 167.724 282.108 166.675 C 280.733 165.357,281.509 164.927,275.391 170.393 M131.373 169.595 C 134.437 171.227,133.270 175.875,129.277 177.940 C 126.763 179.240,123.828 177.639,123.828 174.968 C 123.828 172.014,129.000 168.331,131.373 169.595 M180.652 171.505 C 183.717 174.718,183.355 177.695,179.819 178.358 C 175.888 179.096,171.731 172.765,174.396 170.099 C 176.181 168.315,177.998 168.723,180.652 171.505 M155.740 179.849 C 158.575 182.288,156.836 189.063,153.375 189.063 C 150.705 189.063,150.000 188.025,150.000 184.094 C 150.000 179.224,152.696 177.230,155.740 179.849 M246.387 193.252 L 243.359 195.453 243.359 232.101 L 243.359 268.750 246.680 268.750 L 250.000 268.750 250.000 229.883 C 250.000 208.506,249.868 191.024,249.707 191.034 C 249.546 191.044,248.052 192.042,246.387 193.252 M233.984 201.601 C 230.465 203.923,219.995 210.110,215.139 212.737 L 210.160 215.430 210.158 242.090 L 210.156 268.750 223.242 268.750 L 236.328 268.750 236.328 234.570 C 236.328 215.771,236.196 200.402,236.035 200.416 C 235.874 200.429,234.951 200.963,233.984 201.601 M199.707 220.616 L 196.875 222.046 196.875 245.398 L 196.875 268.750 200.000 268.750 L 203.125 268.750 203.125 243.945 C 203.125 230.303,202.993 219.151,202.832 219.164 C 202.671 219.177,201.265 219.830,199.707 220.616 M182.617 228.225 C 178.965 229.740,173.252 231.981,169.922 233.205 L 163.867 235.429 163.765 252.090 L 163.663 268.750 176.754 268.750 L 189.844 268.750 189.844 247.070 C 189.844 235.146,189.712 225.409,189.551 225.431 C 189.390 225.452,186.270 226.710,182.617 228.225 M153.027 238.902 L 150.000 239.877 150.000 254.313 L 150.000 268.750 153.320 268.750 L 156.641 268.750 156.641 253.320 C 156.641 244.834,156.509 237.899,156.348 237.909 C 156.187 237.919,154.692 238.366,153.027 238.902 M133.398 244.168 C 128.457 245.411,122.700 246.814,120.605 247.286 L 116.797 248.143 116.797 258.447 L 116.797 268.750 129.883 268.750 L 142.969 268.750 142.969 255.273 C 142.969 247.861,142.837 241.822,142.676 241.852 C 142.515 241.883,138.340 242.925,133.398 244.168 M108.789 276.232 C 107.213 277.094,107.031 277.736,107.031 282.428 C 107.031 286.674,107.091 287.029,107.935 287.823 L 108.839 288.672 200.055 288.672 L 291.270 288.672 292.119 287.768 C 292.886 286.952,292.969 286.442,292.969 282.526 C 292.969 277.516,292.867 277.123,291.378 276.353 C 289.954 275.616,110.132 275.498,108.789 276.232 " stroke="none" fill="#fcfcfc" fill-rule="evenodd"></path><path id="path1" d="M153.320 58.051 C 141.564 60.879,132.838 72.042,132.818 84.277 L 132.813 87.891 210.645 87.896 C 297.499 87.903,290.682 87.680,296.875 90.717 C 301.594 93.032,306.578 98.016,308.892 102.734 C 311.938 108.944,311.707 101.308,311.713 195.996 L 311.719 280.859 322.363 280.854 C 334.547 280.847,336.153 280.609,341.406 278.033 C 346.125 275.718,351.109 270.734,353.423 266.016 C 356.473 259.798,356.238 267.858,356.238 169.141 C 356.238 91.378,356.167 80.357,355.645 78.125 C 353.445 68.709,344.963 60.227,335.547 58.027 C 331.810 57.154,156.954 57.177,153.320 58.051 M143.945 96.334 C 100.897 104.056,84.875 157.499,116.534 187.766 C 144.793 214.781,191.724 203.051,204.102 165.879 C 216.827 127.666,183.576 89.225,143.945 96.334 M161.422 103.314 C 192.134 108.669,208.903 142.993,194.320 170.652 C 176.968 203.563,129.311 203.471,112.235 170.494 C 94.624 136.481,123.721 96.739,161.422 103.314 M150.849 109.888 C 149.462 111.365,149.587 117.196,151.029 118.331 C 154.027 120.689,156.836 118.655,156.836 114.128 C 156.836 109.383,153.526 107.039,150.849 109.888 M124.970 120.673 C 122.429 123.214,125.763 128.906,129.792 128.906 C 133.761 128.906,134.352 125.043,130.888 121.739 C 128.112 119.091,126.790 118.853,124.970 120.673 M175.771 121.760 C 173.034 124.497,172.655 126.206,174.396 127.947 C 177.111 130.662,183.398 126.485,182.644 122.467 C 181.982 118.939,178.909 118.622,175.771 121.760 M151.758 125.842 C 150.125 126.735,150.000 127.273,150.000 133.426 L 150.000 139.358 148.887 139.819 C 144.502 141.636,141.974 148.285,143.910 152.909 C 147.201 160.768,158.418 161.315,162.348 153.809 C 162.826 152.896,163.159 152.734,164.561 152.732 C 168.547 152.727,170.823 150.915,170.160 148.273 C 169.663 146.293,168.628 145.703,165.651 145.703 C 163.225 145.703,162.916 145.616,162.677 144.865 C 162.318 143.734,159.480 140.699,158.126 139.999 L 157.031 139.433 157.031 134.228 C 157.031 126.592,155.330 123.888,151.758 125.842 M279.297 133.246 C 262.816 134.663,262.140 134.850,260.506 138.446 C 258.932 141.913,259.667 144.341,263.530 148.436 L 266.204 151.272 264.059 153.201 C 222.333 190.729,175.403 214.176,115.625 227.361 C 104.139 229.894,102.904 230.502,100.824 234.652 C 97.824 240.639,102.672 249.219,109.054 249.219 C 109.723 249.219,109.766 249.797,109.766 258.980 L 109.766 268.741 108.199 268.991 C 102.463 269.909,100.241 273.355,100.067 281.608 C 99.892 289.913,101.147 292.909,105.664 294.972 C 107.803 295.949,291.605 296.120,293.934 295.147 C 298.739 293.140,300.097 290.109,299.930 281.772 C 299.761 273.342,297.582 269.916,291.801 268.991 L 290.234 268.741 290.234 220.761 L 290.234 172.781 292.342 172.309 C 294.890 171.739,297.058 169.830,297.614 167.670 C 298.058 165.939,300.000 143.030,300.000 139.513 C 300.000 135.215,296.772 131.801,292.969 132.078 C 292.646 132.102,286.494 132.627,279.297 133.246 M292.962 140.723 C 292.958 141.421,292.521 146.914,291.990 152.930 C 291.460 158.945,291.024 164.208,291.021 164.625 C 291.017 165.171,289.892 164.277,287.000 161.431 C 280.984 155.511,281.349 155.466,272.777 163.160 C 232.498 199.311,185.598 224.051,132.617 237.097 C 108.399 243.061,107.031 243.166,107.031 239.063 C 107.031 236.727,107.986 236.282,117.383 234.240 C 176.186 221.461,223.404 198.268,265.430 161.523 C 277.245 151.192,277.072 151.690,271.033 145.483 C 268.153 142.523,267.270 141.399,267.811 141.379 C 268.220 141.364,273.125 140.947,278.711 140.454 C 284.297 139.960,289.790 139.533,290.918 139.505 L 292.969 139.453 292.962 140.723 M114.131 146.607 C 111.462 149.448,113.700 152.539,118.425 152.539 C 122.952 152.539,124.986 149.730,122.628 146.732 C 121.461 145.248,115.490 145.160,114.131 146.607 M184.162 146.662 C 180.378 150.446,188.419 155.286,192.351 151.592 C 193.715 150.311,193.767 147.785,192.455 146.552 C 191.041 145.224,185.527 145.296,184.162 146.662 M155.063 146.476 C 157.015 147.521,156.580 151.099,154.408 151.856 C 153.062 152.325,151.049 151.652,150.644 150.597 C 149.514 147.652,152.338 145.018,155.063 146.476 M282.108 166.675 L 283.203 167.724 283.203 218.237 L 283.203 268.750 270.117 268.750 L 257.031 268.750 257.031 227.196 L 257.031 185.642 263.574 180.373 C 267.173 177.475,272.490 172.984,275.391 170.393 C 281.509 164.927,280.733 165.357,282.108 166.675 M126.109 171.422 C 123.371 174.160,123.111 175.515,124.970 177.374 C 126.888 179.291,129.225 178.726,131.797 175.721 C 136.055 170.747,130.775 166.756,126.109 171.422 M174.396 170.099 C 172.418 172.078,173.533 175.322,176.975 177.600 C 178.705 178.745,180.647 178.658,181.799 177.385 C 185.043 173.800,177.812 166.684,174.396 170.099 M150.959 179.865 C 149.553 181.271,149.516 186.909,150.904 188.213 C 153.745 190.882,156.836 188.644,156.836 183.919 C 156.836 179.316,153.683 177.141,150.959 179.865 M250.000 229.883 L 250.000 268.750 246.680 268.750 L 243.359 268.750 243.359 232.101 L 243.359 195.453 246.387 193.252 C 248.052 192.042,249.546 191.044,249.707 191.034 C 249.868 191.024,250.000 208.506,250.000 229.883 M236.328 234.570 L 236.328 268.750 223.242 268.750 L 210.156 268.750 210.158 242.090 L 210.160 215.430 215.139 212.737 C 219.995 210.110,230.465 203.923,233.984 201.601 C 234.951 200.963,235.874 200.429,236.035 200.416 C 236.196 200.402,236.328 215.771,236.328 234.570 M203.125 243.945 L 203.125 268.750 200.000 268.750 L 196.875 268.750 196.875 245.398 L 196.875 222.046 199.707 220.616 C 201.265 219.830,202.671 219.177,202.832 219.164 C 202.993 219.151,203.125 230.303,203.125 243.945 M189.844 247.070 L 189.844 268.750 176.754 268.750 L 163.663 268.750 163.765 252.090 L 163.867 235.429 169.922 233.205 C 173.252 231.981,178.965 229.740,182.617 228.225 C 186.270 226.710,189.390 225.452,189.551 225.431 C 189.712 225.409,189.844 235.146,189.844 247.070 M156.641 253.320 L 156.641 268.750 153.320 268.750 L 150.000 268.750 150.000 254.313 L 150.000 239.877 153.027 238.902 C 154.692 238.366,156.187 237.919,156.348 237.909 C 156.509 237.899,156.641 244.834,156.641 253.320 M142.969 255.273 L 142.969 268.750 129.883 268.750 L 116.797 268.750 116.797 258.447 L 116.797 248.143 120.605 247.286 C 122.700 246.814,128.457 245.411,133.398 244.168 C 138.340 242.925,142.515 241.883,142.676 241.852 C 142.837 241.822,142.969 247.861,142.969 255.273 M291.378 276.353 C 292.867 277.123,292.969 277.516,292.969 282.526 C 292.969 286.442,292.886 286.952,292.119 287.768 L 291.270 288.672 200.055 288.672 L 108.839 288.672 107.935 287.823 C 107.091 287.029,107.031 286.674,107.031 282.428 C 107.031 277.736,107.213 277.094,108.789 276.232 C 110.132 275.498,289.954 275.616,291.378 276.353 " stroke="none" fill="#047bda" fill-rule="evenodd"></path><path id="path2" d="" stroke="none" fill="#bc100dc" fill-rule="evenodd"></path><path id="path3" d="" stroke="none" fill="#bc100dc" fill-rule="evenodd"></path><path id="path4" d="" stroke="none" fill="#bc100dc" fill-rule="evenodd"></path></g></svg>